<?xml version="1.0" encoding="UTF-8"?>
<svg id="Layer_1" xmlns="http://www.w3.org/2000/svg" viewBox="0 0 470 500">
    <defs>
        <style>.cls-1{fill:#010101;}</style>
    </defs>
    <path class="cls-1"
        d="M169.15,397.27c-83.17,27.51-149.95-21.25-165.78-85.39-15.44-62.54,22.53-139.46,108.59-151.36-11.6-45.26-4.52-86.7,27.83-121.68C163.93,12.73,194.54-.49,229.98,.01c40.82,.58,74.14,17.73,98.18,50.95,23.66,32.69,28.72,69.2,18.04,107.97,100.58,8.15,135.11,93.16,120.65,152.32-15.31,62.61-80.63,113.67-165.29,86.26,2.31,13.77,4.41,26.52,6.59,39.25,1.34,7.79,3.39,15.5,4.11,23.34,2.05,22.12-10.31,38.14-32.24,38.99-29.96,1.16-60.03,1.25-89.98-.02-23.7-1-36.24-19.93-31.66-44.01,3.56-18.69,6.97-37.4,10.76-57.79h0Z" />
</svg>