<?xml version="1.0" encoding="UTF-8"?><svg id="Layer_1" xmlns="http://www.w3.org/2000/svg" viewBox="0 0 495 500"><defs><style>.cls-1{fill:#C24428;}</style></defs><path class="cls-1" d="M247.78,0c9.36,9.04,17.89,14.54,22.67,22.33,39.61,64.56,88.75,120.55,148.86,166.6,19.07,14.61,39.37,27.65,59.48,40.83,21.25,13.92,21.86,31.76,.39,44.84-86.93,52.93-156.82,122.78-209.65,209.79-12.66,20.85-31.25,20.78-43.91-.13-52.74-87.1-122.59-156.99-209.66-209.76-21.06-12.76-21.29-31.13-.53-43.83C102.2,177.58,172.06,107.68,225.5,21.09c4.57-7.4,12.96-12.44,22.28-21.09h0Z"/></svg>