<?xml version="1.0" encoding="UTF-8"?><svg id="Layer_1" xmlns="http://www.w3.org/2000/svg" viewBox="0 0 600 500"><defs><style>.cls-1{fill:#C24428;}</style></defs><path class="cls-1" d="M302.21,87.51c16.06-18.34,28.08-35.07,42.98-48.55,60.73-54.9,152.37-51.21,210.07,7.41,56.89,57.79,60.77,151.03,4.52,210.25-74.12,78.05-151.08,153.37-227.32,229.34-19.17,19.1-46.61,18.53-65.83-.64-74.7-74.51-149.7-148.74-223.17-224.47C-2.1,213.91-11.91,147.81,14.37,90.12,40.64,32.43,98.53-2.98,163.39,.33c38.55,1.97,71.84,17.54,99.36,44.84,12.05,11.96,23.21,24.83,39.47,42.35h0Z"/></svg>