<?xml version="1.0" encoding="UTF-8"?><svg id="Layer_1" xmlns="http://www.w3.org/2000/svg" viewBox="0 0 475 500"><defs><style>.cls-1{fill:#010101;}</style></defs><path class="cls-1" d="M288.9,376.65c5.26,29.33,10.15,57.02,15.21,84.66,4.07,22.25-7.25,37.5-29.88,38.16-24.36,.72-48.78,.69-73.14,.02-23.22-.64-34.68-16.2-30.32-39.14,5.09-26.8,9.97-53.65,15.33-82.59-5.26,2.19-8.54,3.4-11.7,4.89-52.83,24.93-114.38,10.04-149.23-36.13-35.28-46.73-33.75-111.43,6.46-154.69,37.55-40.41,77.53-78.55,116.48-117.65,20.51-20.6,40.96-41.27,61.73-61.61,16.54-16.2,37.97-16.98,54-1.04,59.46,59.11,119.61,117.57,177.43,178.27,64.5,67.71,31.88,176.88-58.41,200.71-27.53,7.27-54.06,4.17-79.89-7.16-4.14-1.82-8.18-3.89-14.07-6.7h0Z"/></svg>